HIERARCHY
ROOT Hips
{
    OFFSET 0.000 95.729 0.000
    CHANNELS 6 Xposition Yposition Zposition Yrotation Xrotation Zrotation
    JOINT RightUpLeg
    {
        OFFSET -9.625 -1.639 0.000
        CHANNELS 6 Xposition Yposition Zposition Yrotation Xrotation Zrotation
        JOINT RightLeg
        {
            OFFSET 0.000 -41.481 0.000
            CHANNELS 6 Xposition Yposition Zposition Yrotation Xrotation Zrotation
            JOINT RightFoot
            {
                OFFSET 0.000 -43.120 0.000
                CHANNELS 6 Xposition Yposition Zposition Yrotation Xrotation Zrotation
                End Site
                {
                    OFFSET 0.000 -7.850 17.850
                }
            }
        }
    }
    JOINT LeftUpLeg
    {
        OFFSET 9.625 -1.639 0.000
        CHANNELS 6 Xposition Yposition Zposition Yrotation Xrotation Zrotation
        JOINT LeftLeg
        {
            OFFSET 0.000 -43.120 0.000
            CHANNELS 6 Xposition Yposition Zposition Yrotation Xrotation Zrotation
            JOINT LeftFoot
            {
                OFFSET 0.000 -43.120 0.000
                CHANNELS 6 Xposition Yposition Zposition Yrotation Xrotation Zrotation
                End Site
                {
                    OFFSET 0.000 -7.850 17.850
                }
            }
        }
    }
    JOINT Spine
    {
        OFFSET 0.000 16.395 0.000
        CHANNELS 6 Xposition Yposition Zposition Yrotation Xrotation Zrotation
        JOINT Spine1
        {
            OFFSET 0.000 10.023 0.000
            CHANNELS 6 Xposition Yposition Zposition Yrotation Xrotation Zrotation
            JOINT Spine2
            {
                OFFSET 0.000 10.437 0.000
                CHANNELS 6 Xposition Yposition Zposition Yrotation Xrotation Zrotation
                JOINT Spine3
                {
                    OFFSET 0.000 10.023 0.000
                    CHANNELS 6 Xposition Yposition Zposition Yrotation Xrotation Zrotation
                    JOINT Neck
                    {
                        OFFSET 0.000 10.713 0.000
                        CHANNELS 6 Xposition Yposition Zposition Yrotation Xrotation Zrotation
                        JOINT Head
                        {
                            OFFSET 0.000 9.720 0.000
                            CHANNELS 6 Xposition Yposition Zposition Yrotation Xrotation Zrotation
                            End Site
                            {
                                OFFSET 0.000 16.450 0.000
                            }
                        }
                    }
                    JOINT RightShoulder
                    {
                        OFFSET -3.275 7.142 0.000
                        CHANNELS 6 Xposition Yposition Zposition Yrotation Xrotation Zrotation
                        JOINT RightArm
                        {
                            OFFSET -13.100 0.000 0.000
                            CHANNELS 6 Xposition Yposition Zposition Yrotation Xrotation Zrotation
                            JOINT RightForeArm
                            {
                                OFFSET -27.250 0.000 0.000
                                CHANNELS 6 Xposition Yposition Zposition Yrotation Xrotation Zrotation
                                JOINT RightHand
                                {
                                    OFFSET -26.750 0.000 0.000
                                    CHANNELS 6 Xposition Yposition Zposition Yrotation Xrotation Zrotation
                                    JOINT RightHandThumb1
                                    {
                                        OFFSET -2.560 0.196 3.210
                                        CHANNELS 6 Xposition Yposition Zposition Yrotation Xrotation Zrotation
                                        JOINT RightHandThumb2
                                        {
                                            OFFSET -3.788 0.000 0.000
                                            CHANNELS 6 Xposition Yposition Zposition Yrotation Xrotation Zrotation
                                            JOINT RightHandThumb3
                                            {
                                                OFFSET -2.631 0.000 0.000
                                                CHANNELS 6 Xposition Yposition Zposition Yrotation Xrotation Zrotation
                                                End Site
                                                {
                                                    OFFSET -2.256 0.000 0.000
                                                }
                                            }
                                        }
                                    }
                                    JOINT RightInHandIndex
                                    {
                                        OFFSET -3.316 0.523 2.035
                                        CHANNELS 6 Xposition Yposition Zposition Yrotation Xrotation Zrotation
                                        JOINT RightHandIndex1
                                        {
                                            OFFSET -5.366 -0.094 1.028
                                            CHANNELS 6 Xposition Yposition Zposition Yrotation Xrotation Zrotation
                                            JOINT RightHandIndex2
                                            {
                                                OFFSET -3.723 0.000 0.000
                                                CHANNELS 6 Xposition Yposition Zposition Yrotation Xrotation Zrotation
                                                JOINT RightHandIndex3
                                                {
                                                    OFFSET -2.111 0.000 0.000
                                                    CHANNELS 6 Xposition Yposition Zposition Yrotation Xrotation Zrotation
                                                    End Site
                                                    {
                                                        OFFSET -1.857 0.000 0.000
                                                    }
                                                }
                                            }
                                        }
                                    }
                                    JOINT RightInHandMiddle
                                    {
                                        OFFSET -3.479 0.532 0.778
                                        CHANNELS 6 Xposition Yposition Zposition Yrotation Xrotation Zrotation
                                        JOINT RightHandMiddle1
                                        {
                                            OFFSET -5.322 -0.086 0.323
                                            CHANNELS 6 Xposition Yposition Zposition Yrotation Xrotation Zrotation
                                            JOINT RightHandMiddle2
                                            {
                                                OFFSET -4.062 0.000 0.000
                                                CHANNELS 6 Xposition Yposition Zposition Yrotation Xrotation Zrotation
                                                JOINT RightHandMiddle3
                                                {
                                                    OFFSET -2.547 0.000 0.000
                                                    CHANNELS 6 Xposition Yposition Zposition Yrotation Xrotation Zrotation
                                                    End Site
                                                    {
                                                        OFFSET -2.031 0.000 0.000
                                                    }
                                                }
                                            }
                                        }
                                    }
                                    JOINT RightInHandRing
                                    {
                                        OFFSET -3.461 0.553 -0.133
                                        CHANNELS 6 Xposition Yposition Zposition Yrotation Xrotation Zrotation
                                        JOINT RightHandRing1
                                        {
                                            OFFSET -4.767 -0.023 -0.493
                                            CHANNELS 6 Xposition Yposition Zposition Yrotation Xrotation Zrotation
                                            JOINT RightHandRing2
                                            {
                                                OFFSET -3.541 0.000 0.000
                                                CHANNELS 6 Xposition Yposition Zposition Yrotation Xrotation Zrotation
                                                JOINT RightHandRing3
                                                {
                                                    OFFSET -2.456 0.000 0.000
                                                    CHANNELS 6 Xposition Yposition Zposition Yrotation Xrotation Zrotation
                                                    End Site
                                                    {
                                                        OFFSET -1.910 0.000 0.000
                                                    }
                                                }
                                            }
                                        }
                                    }
                                    JOINT RightInHandPinky
                                    {
                                        OFFSET -3.251 0.483 -1.236
                                        CHANNELS 6 Xposition Yposition Zposition Yrotation Xrotation Zrotation
                                        JOINT RightHandPinky1
                                        {
                                            OFFSET -4.259 -0.023 -1.122
                                            CHANNELS 6 Xposition Yposition Zposition Yrotation Xrotation Zrotation
                                            JOINT RightHandPinky2
                                            {
                                                OFFSET -2.835 0.000 0.000
                                                CHANNELS 6 Xposition Yposition Zposition Yrotation Xrotation Zrotation
                                                JOINT RightHandPinky3
                                                {
                                                    OFFSET -1.792 0.000 0.000
                                                    CHANNELS 6 Xposition Yposition Zposition Yrotation Xrotation Zrotation
                                                    End Site
                                                    {
                                                        OFFSET -1.692 0.000 0.000
                                                    }
                                                }
                                            }
                                        }
                                    }
                                }
                            }
                        }
                    }
                    JOINT LeftShoulder
                    {
                        OFFSET 3.275 7.142 0.000
                        CHANNELS 6 Xposition Yposition Zposition Yrotation Xrotation Zrotation
                        JOINT LeftArm
                        {
                            OFFSET 13.100 0.000 0.000
                            CHANNELS 6 Xposition Yposition Zposition Yrotation Xrotation Zrotation
                            JOINT LeftForeArm
                            {
                                OFFSET 27.250 0.000 0.000
                                CHANNELS 6 Xposition Yposition Zposition Yrotation Xrotation Zrotation
                                JOINT LeftHand
                                {
                                    OFFSET 26.750 0.000 0.000
                                    CHANNELS 6 Xposition Yposition Zposition Yrotation Xrotation Zrotation
                                    JOINT LeftHandThumb1
                                    {
                                        OFFSET 2.560 0.196 3.210
                                        CHANNELS 6 Xposition Yposition Zposition Yrotation Xrotation Zrotation
                                        JOINT LeftHandThumb2
                                        {
                                            OFFSET 3.788 0.000 0.000
                                            CHANNELS 6 Xposition Yposition Zposition Yrotation Xrotation Zrotation
                                            JOINT LeftHandThumb3
                                            {
                                                OFFSET 2.631 0.000 0.000
                                                CHANNELS 6 Xposition Yposition Zposition Yrotation Xrotation Zrotation
                                                End Site
                                                {
                                                    OFFSET 2.256 0.000 0.000
                                                }
                                            }
                                        }
                                    }
                                    JOINT LeftInHandIndex
                                    {
                                        OFFSET 3.316 0.523 2.035
                                        CHANNELS 6 Xposition Yposition Zposition Yrotation Xrotation Zrotation
                                        JOINT LeftHandIndex1
                                        {
                                            OFFSET 5.366 -0.094 1.028
                                            CHANNELS 6 Xposition Yposition Zposition Yrotation Xrotation Zrotation
                                            JOINT LeftHandIndex2
                                            {
                                                OFFSET 3.723 0.000 0.000
                                                CHANNELS 6 Xposition Yposition Zposition Yrotation Xrotation Zrotation
                                                JOINT LeftHandIndex3
                                                {
                                                    OFFSET 2.111 0.000 0.000
                                                    CHANNELS 6 Xposition Yposition Zposition Yrotation Xrotation Zrotation
                                                    End Site
                                                    {
                                                        OFFSET 1.857 0.000 0.000
                                                    }
                                                }
                                            }
                                        }
                                    }
                                    JOINT LeftInHandMiddle
                                    {
                                        OFFSET 3.479 0.532 0.778
                                        CHANNELS 6 Xposition Yposition Zposition Yrotation Xrotation Zrotation
                                        JOINT LeftHandMiddle1
                                        {
                                            OFFSET 5.322 -0.086 0.323
                                            CHANNELS 6 Xposition Yposition Zposition Yrotation Xrotation Zrotation
                                            JOINT LeftHandMiddle2
                                            {
                                                OFFSET 4.062 0.000 0.000
                                                CHANNELS 6 Xposition Yposition Zposition Yrotation Xrotation Zrotation
                                                JOINT LeftHandMiddle3
                                                {
                                                    OFFSET 2.547 0.000 0.000
                                                    CHANNELS 6 Xposition Yposition Zposition Yrotation Xrotation Zrotation
                                                    End Site
                                                    {
                                                        OFFSET 2.031 0.000 0.000
                                                    }
                                                }
                                            }
                                        }
                                    }
                                    JOINT LeftInHandRing
                                    {
                                        OFFSET 3.461 0.553 -0.133
                                        CHANNELS 6 Xposition Yposition Zposition Yrotation Xrotation Zrotation
                                        JOINT LeftHandRing1
                                        {
                                            OFFSET 4.767 -0.023 -0.493
                                            CHANNELS 6 Xposition Yposition Zposition Yrotation Xrotation Zrotation
                                            JOINT LeftHandRing2
                                            {
                                                OFFSET 3.541 0.000 0.000
                                                CHANNELS 6 Xposition Yposition Zposition Yrotation Xrotation Zrotation
                                                JOINT LeftHandRing3
                                                {
                                                    OFFSET 2.456 0.000 0.000
                                                    CHANNELS 6 Xposition Yposition Zposition Yrotation Xrotation Zrotation
                                                    End Site
                                                    {
                                                        OFFSET 1.910 0.000 0.000
                                                    }
                                                }
                                            }
                                        }
                                    }
                                    JOINT LeftInHandPinky
                                    {
                                        OFFSET 3.251 0.483 -1.236
                                        CHANNELS 6 Xposition Yposition Zposition Yrotation Xrotation Zrotation
                                        JOINT LeftHandPinky1
                                        {
                                            OFFSET 4.259 -0.023 -1.122
                                            CHANNELS 6 Xposition Yposition Zposition Yrotation Xrotation Zrotation
                                            JOINT LeftHandPinky2
                                            {
                                                OFFSET 2.835 0.000 0.000
                                                CHANNELS 6 Xposition Yposition Zposition Yrotation Xrotation Zrotation
                                                JOINT LeftHandPinky3
                                                {
                                                    OFFSET 1.792 0.000 0.000
                                                    CHANNELS 6 Xposition Yposition Zposition Yrotation Xrotation Zrotation
                                                    End Site
                                                    {
                                                        OFFSET 1.692 0.000 0.000
                                                    }
                                                }
                                            }
                                        }
                                    }
                                }
                            }
                        }
                    }
                }
            }
        }
    }
}
MOTION

Frames: 2
Frame Time: 0.017
2.83 96.66 26.84 -20.21 21.01 -3.04 -9.59 -1.60 0.05 1.84 -25.31 3.88 0.03 -41.48 0.14 -5.55 -0.75 -4.55 0.28 -43.59 0.08 -5.67 5.03 6.20 9.67 -1.68 -0.02 3.60 -24.16 4.87 0.06 -43.12 -0.02 0.26 0.95 0.93 0.18 -42.65 0.01 2.43 3.67 -4.36 0.02 16.39 0.02 1.83 2.56 -0.18 0.01 10.01 0.02 0.46 0.64 -0.05 0.01 10.44 0.01 0.77 1.06 -0.08 0.01 10.02 0.01 -0.03 0.27 -0.09 -0.00 10.72 0.01 -0.04 0.27 -0.09 0.02 9.72 0.02 -0.78 4.82 -1.69 -3.27 7.11 0.04 -0.92 -10.07 2.32 -13.12 -0.02 0.05 20.83 -9.84 42.25 -27.42 0.14 0.03 105.24 40.90 47.21 -26.67 0.01 -0.21 -26.61 -10.63 12.60 -2.56 0.20 3.21 20.94 -0.00 30.08 -3.79 0.00 0.00 -35.38 -0.00 -14.80 -2.63 0.00 0.00 -2.03 -0.00 0.00 -3.32 0.52 2.03 0.00 -0.00 0.00 -5.37 -0.09 1.03 15.00 -0.00 10.60 -3.72 0.00 0.00 0.00 -0.00 16.10 -2.11 0.00 0.00 0.00 -0.00 8.05 -3.48 0.53 0.78 0.00 -0.00 0.00 -5.32 -0.09 0.32 0.00 -0.00 30.89 -4.06 0.00 0.00 0.00 -0.00 30.89 -2.55 0.00 0.00 0.00 -0.00 30.89 -3.46 0.55 -0.13 0.00 -0.00 0.00 -4.77 -0.02 -0.49 -15.00 -0.00 48.30 -3.54 0.00 0.00 0.00 -0.00 48.30 -2.46 0.00 0.00 0.00 -0.00 48.30 -3.25 0.48 -1.24 0.00 -0.00 0.00 -4.26 -0.02 -1.12 -25.00 -0.00 71.66 -2.84 0.00 0.00 0.00 -0.00 71.66 -1.79 0.00 0.00 0.00 -0.00 71.66 3.30 7.15 -0.03 -8.18 -2.63 -6.37 13.12 0.01 -0.06 -18.50 -12.68 -70.06 27.28 0.00 -0.05 -56.78 11.99 -29.47 26.73 -0.00 -0.04 15.02 9.88 43.48 2.56 0.20 3.21 -28.00 -0.00 -19.62 3.79 0.00 0.00 51.90 -0.00 4.40 2.63 0.00 0.00 -29.27 -0.00 0.00 3.32 0.52 2.03 0.00 -0.00 0.00 5.37 -0.09 1.03 -15.00 -0.00 51.72 3.72 0.00 0.00 0.00 -0.00 -56.17 2.11 0.00 0.00 0.00 -0.00 -28.09 3.48 0.53 0.78 0.00 -0.00 0.00 5.32 -0.09 0.32 0.00 -0.00 -49.19 4.06 0.00 0.00 0.00 -0.00 -49.19 2.55 0.00 0.00 0.00 -0.00 -49.19 3.46 0.55 -0.13 0.00 -0.00 0.00 4.77 -0.02 -0.49 15.00 -0.00 -62.26 3.54 0.00 0.00 0.00 -0.00 -62.26 2.46 0.00 0.00 0.00 -0.00 -62.26 3.25 0.48 -1.24 0.00 -0.00 0.00 4.26 -0.02 -1.12 25.00 -0.00 -133.79 2.84 0.00 0.00 0.00 -0.00 -133.79 1.79 0.00 0.00 0.00 -0.00 -133.79 
2.86 96.66 26.86 -20.52 21.01 -3.01 -9.59 -1.59 0.05 1.89 -25.29 3.86 0.03 -41.48 0.14 -5.38 -0.76 -4.57 0.26 -43.60 0.14 -5.56 5.01 6.23 9.67 -1.68 -0.02 3.67 -24.15 4.85 0.05 -43.12 0.02 0.18 1.10 0.93 0.13 -42.65 0.02 2.76 3.53 -4.38 0.03 16.39 0.02 1.88 2.55 -0.23 0.02 10.01 0.02 0.47 0.64 -0.07 0.01 10.44 0.01 0.78 1.06 -0.11 0.01 10.02 0.01 -0.03 0.27 -0.10 0.00 10.72 0.00 -0.03 0.27 -0.10 0.02 9.72 0.02 -0.71 4.79 -1.76 -3.27 7.11 0.04 -0.59 -10.25 2.48 -13.27 0.06 -0.10 22.29 -9.82 42.86 -27.30 0.21 -0.15 103.46 42.12 46.44 -26.70 0.06 -0.09 -26.05 -10.88 11.62 -2.56 0.20 3.21 21.41 -0.00 30.51 -3.79 0.00 0.00 -34.43 -0.00 -14.36 -2.63 0.00 0.00 -3.37 -0.00 0.00 -3.32 0.52 2.03 0.00 -0.00 0.00 -5.37 -0.09 1.03 15.00 -0.00 10.48 -3.72 0.00 0.00 0.00 -0.00 16.19 -2.11 0.00 0.00 0.00 -0.00 8.10 -3.48 0.53 0.78 0.00 -0.00 0.00 -5.32 -0.09 0.32 0.00 -0.00 31.67 -4.06 0.00 0.00 0.00 -0.00 31.67 -2.55 0.00 0.00 0.00 -0.00 31.67 -3.46 0.55 -0.13 0.00 -0.00 0.00 -4.77 -0.02 -0.49 -15.00 -0.00 48.16 -3.54 0.00 0.00 0.00 -0.00 48.16 -2.46 0.00 0.00 0.00 -0.00 48.16 -3.25 0.48 -1.24 0.00 -0.00 0.00 -4.26 -0.02 -1.12 -25.00 -0.00 71.72 -2.84 0.00 0.00 0.00 -0.00 71.72 -1.79 0.00 0.00 0.00 -0.00 71.72 3.29 7.14 -0.03 -8.08 -2.65 -6.36 13.12 0.01 -0.05 -18.45 -12.63 -70.11 27.28 -0.00 -0.05 -56.69 11.90 -29.36 26.73 -0.01 -0.03 14.90 9.74 43.42 2.56 0.20 3.21 -27.99 -0.00 -19.56 3.79 0.00 0.00 51.92 -0.00 4.46 2.63 0.00 0.00 -29.33 -0.00 0.00 3.32 0.52 2.03 0.00 -0.00 0.00 5.37 -0.09 1.03 -15.00 -0.00 51.95 3.72 0.00 0.00 0.00 -0.00 -56.52 2.11 0.00 0.00 0.00 -0.00 -28.26 3.48 0.53 0.78 0.00 -0.00 0.00 5.32 -0.09 0.32 0.00 -0.00 -49.30 4.06 0.00 0.00 0.00 -0.00 -49.30 2.55 0.00 0.00 0.00 -0.00 -49.30 3.46 0.55 -0.13 0.00 -0.00 0.00 4.77 -0.02 -0.49 15.00 -0.00 -62.23 3.54 0.00 0.00 0.00 -0.00 -62.23 2.46 0.00 0.00 0.00 -0.00 -62.23 3.25 0.48 -1.24 0.00 -0.00 0.00 4.26 -0.02 -1.12 25.00 -0.00 -133.94 2.84 0.00 0.00 0.00 -0.00 -133.94 1.79 0.00 0.00 0.00 -0.00 -133.94 
